/* XPM */
static char *zdoom_xpm[] = {
/* columns rows colors chars-per-pixel */
"16 16 8 1 ",
"  c #C3C1C7",
". c white",
"X c black",
"o c #57447D",
"O c #90022F",
"+ c #FF1101",
"@ c #FF7301",
"# c #A8A8E1",
/* pixels */
" .............. ",
".XXXXXXXXXXXXXX.",
".XoXXXXXXXXoooo.",
".XoXO+@+++#Xooo.",
".XoXOO@++++.Xoo.",
".XoXXXO.XXO+.Xo.",
".XX@@++O..X+.#X.",
".O@@XX@@OOOO##X.",
".@@@@@@@@++#..X.",
".@@@@@@@@@+.#XX.",
".OO++@@@@@O.XXX.",
".XXOOO++@@O.XXX.",
".XoXXOOOO+O#XXX.",
".XoooXXXXXXXXXo.",
".Xooooooooooooo.",
" .............. "
};
